<svg xmlns="http://www.w3.org/2000/svg" viewBox="0 0 1200 700" width="1200" height="700">
  <defs>
    <linearGradient id="sky" x1="0" y1="0" x2="0" y2="1">
      <stop offset="0%" stop-color="#7fc8ff"/>
      <stop offset="100%" stop-color="#dff4ff"/>
    </linearGradient>
    <linearGradient id="sunset" x1="0" y1="0" x2="0" y2="1">
      <stop offset="0%" stop-color="#ffb47b"/>
      <stop offset="100%" stop-color="#ffe4c7"/>
    </linearGradient>
    <filter id="shadow"><feDropShadow dx="0" dy="6" stdDeviation="6" flood-opacity=".18"/></filter>
  </defs>
  
<rect width="1200" height="700" fill="url(#sky)"/>
<circle cx="980" cy="100" r="48" fill="#ff8b6a"/>
<rect y="320" width="1200" height="380" fill="#5cc7df"/>
<path d="M0 390 C220 320 350 390 520 345 C700 300 860 380 1200 320 L1200 700 L0 700Z" fill="#4e9d64"/>
<path d="M0 700 L0 470 L220 365 L390 470 L540 380 L720 470 L905 350 L1200 500 L1200 700Z" fill="#f1d2a2"/>
<g filter="url(#shadow)">
<rect x="70" y="390" width="190" height="220" rx="12" fill="#fff4dc"/><polygon points="55,405 165,320 275,405" fill="#7f63c8"/>
<rect x="320" y="420" width="180" height="190" rx="12" fill="#fefefe"/><polygon points="305,435 410,350 515,435" fill="#4d7f9f"/>
<rect x="760" y="395" width="210" height="215" rx="12" fill="#fff0cd"/><polygon points="740,410 865,315 990,410" fill="#b6574b"/>
</g>
<rect x="135" y="455" width="45" height="70" fill="#8ec7f2"/><rect x="390" y="470" width="45" height="70" fill="#8ec7f2"/><rect x="835" y="450" width="45" height="70" fill="#8ec7f2"/>
<rect x="1000" y="445" width="110" height="150" fill="#a95c3c"/><rect x="1020" y="470" width="70" height="90" fill="#336ec7"/>
<path d="M170 610 C330 570 460 590 600 560 C780 520 870 560 1010 520" fill="none" stroke="#fff" stroke-width="28" stroke-linecap="round"/>
<g fill="#fff"><ellipse cx="240" cy="145" rx="65" ry="28"/><ellipse cx="295" cy="145" rx="45" ry="22"/><ellipse cx="520" cy="120" rx="55" ry="25"/></g>
<path d="M560 315 l40 -65 l40 65z" fill="#fff"/><rect x="586" y="314" width="8" height="55" fill="#785a45"/>
<circle cx="1090" cy="580" r="28" fill="#f3a54a"/><circle cx="1125" cy="565" r="12" fill="#333"/><path d="M1065 580 q25 -40 50 0" fill="#fff"/>

</svg>