<svg xmlns="http://www.w3.org/2000/svg" viewBox="0 0 1200 700" width="1200" height="700">
  <defs>
    <linearGradient id="sky" x1="0" y1="0" x2="0" y2="1">
      <stop offset="0%" stop-color="#7fc8ff"/>
      <stop offset="100%" stop-color="#dff4ff"/>
    </linearGradient>
    <linearGradient id="sunset" x1="0" y1="0" x2="0" y2="1">
      <stop offset="0%" stop-color="#ffb47b"/>
      <stop offset="100%" stop-color="#ffe4c7"/>
    </linearGradient>
    <filter id="shadow"><feDropShadow dx="0" dy="6" stdDeviation="6" flood-opacity=".18"/></filter>
  </defs>
  
<rect width="1200" height="700" fill="#111936"/>
<g fill="#fff"><circle cx="120" cy="120" r="5"/><circle cx="230" cy="80" r="7"/><circle cx="1020" cy="110" r="6"/><circle cx="900" cy="200" r="4"/></g>
<circle cx="980" cy="180" r="90" fill="#6e7df2"/><circle cx="950" cy="150" r="18" fill="#5966c7"/><circle cx="1020" cy="210" r="22" fill="#5966c7"/>
<ellipse cx="600" cy="610" rx="500" ry="120" fill="#b8b8c9"/>
<g filter="url(#shadow)">
<circle cx="330" cy="380" r="100" fill="#f5a65b"/><circle cx="285" cy="300" r="30" fill="#f5a65b"/><circle cx="375" cy="300" r="30" fill="#f5a65b"/>
<circle cx="650" cy="390" r="105" fill="#d7d7d7"/><polygon points="570,320 610,240 640,330" fill="#d7d7d7"/><polygon points="660,330 705,240 735,320" fill="#d7d7d7"/>
</g>
<rect x="250" y="420" width="160" height="150" rx="35" fill="#f4f4f4"/><rect x="570" y="430" width="170" height="150" rx="35" fill="#f4f4f4"/>
<circle cx="300" cy="370" r="10"/><circle cx="360" cy="370" r="10"/><circle cx="620" cy="380" r="10"/><circle cx="685" cy="380" r="10"/>
<path d="M305 410 q25 20 50 0" fill="none" stroke="#7d4b22" stroke-width="7"/><path d="M625 420 q30 25 60 0" fill="none" stroke="#555" stroke-width="7"/>
<rect x="450" y="500" width="110" height="55" rx="12" fill="#ff6f6f"/><circle cx="480" cy="528" r="10" fill="#fff"/><circle cx="530" cy="528" r="10" fill="#fff"/>
<path d="M780 480 q60 -80 120 0 q-60 45 -120 0z" fill="#8ce0ff"/><circle cx="840" cy="455" r="18" fill="#fff"/>

</svg>