<svg xmlns="http://www.w3.org/2000/svg" viewBox="0 0 1200 700" width="1200" height="700">
  <defs>
    <linearGradient id="sky" x1="0" y1="0" x2="0" y2="1">
      <stop offset="0%" stop-color="#7fc8ff"/>
      <stop offset="100%" stop-color="#dff4ff"/>
    </linearGradient>
    <linearGradient id="sunset" x1="0" y1="0" x2="0" y2="1">
      <stop offset="0%" stop-color="#ffb47b"/>
      <stop offset="100%" stop-color="#ffe4c7"/>
    </linearGradient>
    <filter id="shadow"><feDropShadow dx="0" dy="6" stdDeviation="6" flood-opacity=".18"/></filter>
  </defs>
  
<rect width="1200" height="700" fill="url(#sunset)"/>
<circle cx="980" cy="150" r="62" fill="#fff2a8"/>
<path d="M0 420 L170 250 L330 420 L520 180 L760 420 L930 260 L1200 430 L1200 700 L0 700Z" fill="#6c7488"/>
<path d="M0 500 L220 360 L420 500 L620 320 L820 500 L1030 350 L1200 510 L1200 700 L0 700Z" fill="#4e5f62"/>
<rect y="520" width="1200" height="180" fill="#4ea5b5"/>
<path d="M0 590 q200 -40 400 0 t400 0 t400 0" fill="none" stroke="#b8eef4" stroke-width="10"/>
<path d="M130 560 l100 -170 l100 170z" fill="#e9eef3"/><path d="M480 520 l110 -210 l110 210z" fill="#f7f9fb"/>
<g fill="#2f4038"><circle cx="100" cy="500" r="38"/><circle cx="150" cy="500" r="48"/><circle cx="1080" cy="500" r="50"/></g>
<rect x="880" y="450" width="90" height="85" fill="#d9ad76"/><polygon points="860,455 925,400 990,455" fill="#7b4b36"/>
<g fill="#ffffff" opacity=".8"><ellipse cx="230" cy="120" rx="65" ry="24"/><ellipse cx="290" cy="120" rx="45" ry="18"/></g>
<path d="M720 120 q15 -20 30 0 q15 -20 30 0" fill="none" stroke="#333" stroke-width="5"/>

</svg>