<svg xmlns="http://www.w3.org/2000/svg" viewBox="0 0 1200 700" width="1200" height="700">
  <defs>
    <linearGradient id="sky" x1="0" y1="0" x2="0" y2="1">
      <stop offset="0%" stop-color="#7fc8ff"/>
      <stop offset="100%" stop-color="#dff4ff"/>
    </linearGradient>
    <linearGradient id="sunset" x1="0" y1="0" x2="0" y2="1">
      <stop offset="0%" stop-color="#ffb47b"/>
      <stop offset="100%" stop-color="#ffe4c7"/>
    </linearGradient>
    <filter id="shadow"><feDropShadow dx="0" dy="6" stdDeviation="6" flood-opacity=".18"/></filter>
  </defs>
  
<rect width="1200" height="700" fill="#3e315f"/>
<rect x="60" y="70" width="1080" height="560" rx="28" fill="#6a4e78"/>
<g fill="#a57b4d">
<rect x="110" y="120" width="270" height="430"/><rect x="820" y="120" width="270" height="430"/>
</g>
<g>
<rect x="130" y="150" width="55" height="170" fill="#d75b6a"/><rect x="195" y="150" width="55" height="170" fill="#4f91d1"/><rect x="260" y="150" width="55" height="170" fill="#f0c652"/>
<rect x="840" y="150" width="55" height="170" fill="#70b77e"/><rect x="905" y="150" width="55" height="170" fill="#d9984f"/><rect x="970" y="150" width="55" height="170" fill="#9d75c9"/>
</g>
<circle cx="600" cy="300" r="130" fill="#f0dfb0"/><path d="M520 330 q80 -120 160 0 q-20 80 -80 80 q-60 0 -80 -80z" fill="#a46d42"/>
<circle cx="555" cy="285" r="10"/><circle cx="645" cy="285" r="10"/><path d="M565 350 q35 25 70 0" fill="none" stroke="#704022" stroke-width="8"/>
<polygon points="470,220 600,80 730,220" fill="#5b4a9b"/><circle cx="600" cy="130" r="20" fill="#f9d14b"/>
<rect x="450" y="470" width="300" height="85" rx="18" fill="#4a2f22"/><path d="M480 500 q120 -50 240 0" fill="none" stroke="#f4e8c1" stroke-width="16"/>
<circle cx="220" cy="470" r="35" fill="#65d4c6"/><circle cx="980" cy="470" r="35" fill="#ff8d7b"/>
<g fill="#ffd95e"><circle cx="430" cy="120" r="8"/><circle cx="770" cy="160" r="8"/><circle cx="760" cy="520" r="8"/></g>

</svg>